<svg width="203" height="182" viewBox="0 0 203 182" fill="none" xmlns="http://www.w3.org/2000/svg">
<path d="M150.282 82.4272H167.242V84.5472H153.602V95.5072H164.242V97.5872H153.602V109.347H167.242V111.467H150.802V85.1872L150.282 82.4272Z" fill="#EDEAE9"/>
<path d="M140.247 97.3472H125.087V111.467H122.327V85.1872C122.327 85.1605 122.274 84.9472 122.167 84.5472C122.087 84.1205 122.007 83.6805 121.927 83.2272C121.847 82.7739 121.794 82.5072 121.767 82.4272H125.087V95.2672H140.247V82.4272H143.007V111.467H140.247V97.3472Z" fill="#EDEAE9"/>
<path d="M105.402 84.5472H96.4824V82.4272H117.202V84.5472H108.162V111.467H105.402V84.5472Z" fill="#EDEAE9"/>
<path d="M68.953 82.4272H84.513V84.5472H72.273V95.5072H82.113V97.5872H72.273V111.467H69.513V85.1872L68.953 82.4272Z" fill="#EDEAE9"/>
<path d="M50.9808 111.907C48.8475 111.907 46.9942 111.507 45.4208 110.707C43.8742 109.881 42.5942 108.761 41.5808 107.347C40.5675 105.934 39.8075 104.347 39.3008 102.587C38.8208 100.801 38.5808 98.9472 38.5808 97.0272C38.5808 95.1072 38.8208 93.2539 39.3008 91.4672C39.7808 89.6805 40.5275 88.0805 41.5408 86.6672C42.5542 85.2538 43.8475 84.1339 45.4208 83.3072C46.9942 82.4805 48.8475 82.0672 50.9808 82.0672C53.1408 82.0672 54.9808 82.4939 56.5008 83.3472C58.0475 84.1739 59.3142 85.2938 60.3008 86.7072C61.3142 88.1205 62.0608 89.7205 62.5408 91.5072C63.0208 93.2672 63.2608 95.0938 63.2608 96.9872C63.2608 98.9072 63.0208 100.761 62.5408 102.547C62.0608 104.334 61.3275 105.934 60.3408 107.347C59.3542 108.734 58.0875 109.841 56.5408 110.667C54.9942 111.494 53.1408 111.907 50.9808 111.907ZM50.9408 109.747C52.7275 109.747 54.2208 109.374 55.4208 108.627C56.6475 107.854 57.6208 106.841 58.3408 105.587C59.0875 104.334 59.6208 102.961 59.9408 101.467C60.2875 99.9472 60.4608 98.4272 60.4608 96.9072C60.4608 95.3872 60.2875 93.8939 59.9408 92.4272C59.6208 90.9339 59.0875 89.5739 58.3408 88.3472C57.5942 87.1205 56.6208 86.1472 55.4208 85.4272C54.2208 84.6805 52.7408 84.3072 50.9808 84.3072C49.2208 84.3072 47.7275 84.6939 46.5008 85.4672C45.3008 86.2139 44.3275 87.2272 43.5808 88.5072C42.8608 89.7605 42.3408 91.1472 42.0208 92.6672C41.7008 94.1605 41.5408 95.6672 41.5408 97.1872C41.5408 98.6805 41.7008 100.174 42.0208 101.667C42.3675 103.134 42.9008 104.481 43.6208 105.707C44.3408 106.934 45.3008 107.921 46.5008 108.667C47.7008 109.387 49.1808 109.747 50.9408 109.747Z" fill="#EDEAE9"/>
<path d="M175.911 8.03878L194.917 37.1404C195.333 37.7635 195.748 38.4075 196.164 39.0722C196.579 39.7369 196.995 40.3808 197.41 41.004C197.368 40.2562 197.306 39.5084 197.223 38.7606C197.181 38.0128 197.161 37.265 197.161 36.5172V8.03878H202.831V53.7788H197.846L175.849 20.1281C175.475 19.5049 175.08 18.8818 174.665 18.2586C174.249 17.5939 173.834 16.9707 173.418 16.3891C173.501 17.0538 173.564 17.7393 173.605 18.4456C173.647 19.1103 173.668 19.7957 173.668 20.502V53.4672H167.997V12.027L167.124 8.03878H175.911Z" fill="#EDEAE9"/>
<path d="M132.924 7.97646H160.717V13.0864H140.775V27.5437H156.167V32.5913H140.775V48.3573H160.717V53.4672H133.796V11.9647L132.924 7.97646Z" fill="#EDEAE9"/>
<path d="M98.7227 7.97646H126.516V13.0864H106.575V27.5437H121.967V32.5913H106.575V48.3573H126.516V53.4672H99.5952V11.9647L98.7227 7.97646Z" fill="#EDEAE9"/>
<path d="M62.7021 7.97646V38.2621C62.7021 41.5856 63.5745 44.2444 65.3194 46.2385C67.1058 48.2326 69.723 49.2297 73.1712 49.2297C75.5392 49.2297 77.5333 48.7519 79.1535 47.7964C80.8153 46.8409 82.0616 45.5115 82.8925 43.8082C83.7649 42.0633 84.2011 40.0277 84.2011 37.7012V7.97646H89.9342V36.8911C89.9342 40.7132 89.228 43.9121 87.8155 46.4878C86.403 49.0635 84.3881 50.9953 81.7708 52.2832C79.1951 53.571 76.1624 54.215 72.6727 54.215C67.2304 54.215 63.0137 52.7817 60.0225 49.9152C57.0313 47.0071 55.5358 42.8319 55.5358 37.3896V11.9647L54.601 7.97646H62.7021Z" fill="#EDEAE9"/>
<path d="M81.68 65.7336C80.0444 66.3109 78.5773 66.8159 77.2785 67.2489C75.9797 67.7299 74.7049 68.1147 73.4542 68.4034C72.2035 68.692 70.8807 68.9085 69.4857 69.0528C68.1388 69.1971 66.6235 69.2692 64.9399 69.2692C62.7752 69.2692 60.4182 68.9566 57.8687 68.3312C55.3192 67.7059 52.6975 66.8881 50.0037 65.8779C47.358 64.9158 44.7364 63.8335 42.1388 62.6309C39.5412 61.4764 37.0879 60.346 34.7789 59.2396C32.5181 58.1813 30.5218 57.2674 28.79 56.4977C27.3469 55.8243 25.8076 55.2951 24.1721 54.9103C22.5847 54.5736 20.9972 54.2368 19.4098 53.9001C14.7919 52.8899 11.0398 51.0861 8.15357 48.4885C5.31545 45.8909 3.24699 42.7641 1.9482 39.1083C0.649399 35.4043 0 31.4598 0 27.2748C0 23.667 0.481037 20.2516 1.44311 17.0287C2.40518 13.7576 3.87234 10.8474 5.84459 8.29788C7.86494 5.70028 10.3904 3.67993 13.4209 2.23682C16.4514 0.745607 20.0111 0 24.0999 0C28.1887 0 31.7243 0.745607 34.7068 2.23682C37.7373 3.72803 40.2387 5.74839 42.2109 8.29788C44.2313 10.8474 45.7225 13.7576 46.6846 17.0287C47.6466 20.2997 48.1277 23.7151 48.1277 27.2748C48.1277 30.5458 47.6707 33.7928 46.7567 37.0157C45.8428 40.1906 44.3515 43.1009 42.2831 45.7466C40.2627 48.3923 37.593 50.5088 34.2738 52.0962C34.4181 52.1443 34.5865 52.2165 34.7789 52.3127C34.9713 52.3608 35.1638 52.433 35.3562 52.5292C36.6069 53.1545 38.1943 53.9242 40.1184 54.8381C42.0426 55.8002 44.1591 56.7863 46.4681 57.7965C48.8252 58.8548 51.2544 59.8169 53.7558 60.6827C56.2572 61.5967 58.6864 62.3423 61.0435 62.9195C63.4006 63.4968 65.5893 63.7854 67.6096 63.7854C68.6198 63.7854 69.8465 63.6652 71.2896 63.4246C72.7808 63.1841 74.3201 62.8714 75.9075 62.4866C77.5431 62.1499 79.0102 61.7891 80.309 61.4043L81.68 65.7336ZM24.0999 48.4885C26.9861 48.4885 29.4154 47.8872 31.3876 46.6846C33.3599 45.4339 34.9473 43.7984 36.1499 41.778C37.4006 39.7095 38.2905 37.4246 38.8196 34.9232C39.3488 32.3737 39.6133 29.8243 39.6133 27.2748C39.6133 24.6772 39.3488 22.1277 38.8196 19.6263C38.2905 17.0768 37.4006 14.7678 36.1499 12.6994C34.9473 10.6309 33.3599 8.97133 31.3876 7.72063C29.4154 6.46994 26.9861 5.84459 24.0999 5.84459C21.2137 5.84459 18.7845 6.46994 16.8122 7.72063C14.84 8.97133 13.2526 10.655 12.05 12.7715C10.8474 14.84 9.95745 17.1489 9.38021 19.6984C8.85107 22.1998 8.5865 24.7493 8.5865 27.3469C8.5865 29.8483 8.85107 32.3737 9.38021 34.9232C9.95745 37.4246 10.8474 39.7095 12.05 41.778C13.2526 43.7984 14.84 45.4339 16.8122 46.6846C18.7845 47.8872 21.2137 48.4885 24.0999 48.4885Z" fill="#EDEAE9"/>
<path d="M175.608 140.838H162.421V135.713H196.171V140.838H182.796V181.338H175.608V140.838Z" fill="#EDEAE9"/>
<path d="M130.015 135.713H144.452C147.285 135.713 149.869 136.088 152.202 136.838C154.535 137.588 156.39 138.879 157.765 140.713C159.14 142.546 159.827 145.067 159.827 148.275C159.827 149.983 159.41 151.629 158.577 153.213C157.744 154.754 156.619 156.108 155.202 157.275C153.827 158.4 152.327 159.213 150.702 159.713L164.015 181.338H155.952L143.827 160.9H137.89V181.338H130.89V139.713L130.015 135.713ZM137.89 140.838V155.9H142.452C144.327 155.9 146.015 155.671 147.515 155.213C149.056 154.754 150.265 153.963 151.14 152.838C152.056 151.713 152.515 150.108 152.515 148.025C152.515 146.4 152.119 145.067 151.327 144.025C150.535 142.983 149.494 142.192 148.202 141.65C146.952 141.108 145.577 140.838 144.077 140.838H137.89Z" fill="#EDEAE9"/>
<path d="M109.461 135.713L125.398 181.338H117.773L112.836 166.775H98.4609L93.4609 181.338H87.3359L103.336 135.713H109.461ZM105.711 144.713L100.148 161.713H111.148L105.711 144.713Z" fill="#EDEAE9"/>
<path d="M56.3466 135.713H84.2216V140.838H64.2216V155.338H79.6591V160.4H64.2216V176.213H84.2216V181.338H57.2216V139.713L56.3466 135.713Z" fill="#EDEAE9"/>
<path d="M40.5424 160.275H19.6674V181.338H12.6674V139.713C12.6674 139.671 12.5841 139.358 12.4174 138.775C12.2924 138.15 12.1674 137.525 12.0424 136.9C11.9174 136.233 11.8341 135.838 11.7924 135.713H19.6674V155.213H40.5424V135.713H47.5424V181.338H40.5424V160.275Z" fill="#EDEAE9"/>
</svg>
